<mxfile host="app.diagrams.net" agent="Mozilla/5.0 (Windows NT 10.0; Win64; x64; rv:143.0) Gecko/20100101 Firefox/143.0" version="28.2.0">
  <diagram name="Page-1" id="BzFMRRmApuEDMhpbmkk3">
    <mxGraphModel dx="1426" dy="779" grid="1" gridSize="10" guides="1" tooltips="1" connect="1" arrows="1" fold="1" page="1" pageScale="1" pageWidth="827" pageHeight="1169" math="0" shadow="0">
      <root>
        <mxCell id="0" />
        <mxCell id="1" parent="0" />
        <mxCell id="9jXBSC5-d6bjEeyR_fWg-1" value="" style="shape=flexArrow;endArrow=classic;html=1;rounded=0;fillColor=#0050ef;strokeColor=#001DBC;" edge="1" parent="1">
          <mxGeometry width="50" height="50" relative="1" as="geometry">
            <mxPoint x="200" y="169.5" as="sourcePoint" />
            <mxPoint x="300" y="169.5" as="targetPoint" />
          </mxGeometry>
        </mxCell>
        <mxCell id="9jXBSC5-d6bjEeyR_fWg-3" value="Request 1" style="edgeLabel;html=1;align=center;verticalAlign=middle;resizable=0;points=[];" vertex="1" connectable="0" parent="9jXBSC5-d6bjEeyR_fWg-1">
          <mxGeometry x="0.04" y="-1" relative="1" as="geometry">
            <mxPoint x="-12" y="-21" as="offset" />
          </mxGeometry>
        </mxCell>
        <mxCell id="9jXBSC5-d6bjEeyR_fWg-4" value="" style="shape=flexArrow;endArrow=classic;html=1;rounded=0;fillColor=#008a00;strokeColor=#005700;" edge="1" parent="1">
          <mxGeometry width="50" height="50" relative="1" as="geometry">
            <mxPoint x="200" y="219.5" as="sourcePoint" />
            <mxPoint x="300" y="219.5" as="targetPoint" />
          </mxGeometry>
        </mxCell>
        <mxCell id="9jXBSC5-d6bjEeyR_fWg-5" value="Request 2" style="edgeLabel;html=1;align=center;verticalAlign=middle;resizable=0;points=[];" vertex="1" connectable="0" parent="9jXBSC5-d6bjEeyR_fWg-4">
          <mxGeometry x="0.04" y="-1" relative="1" as="geometry">
            <mxPoint x="-12" y="-21" as="offset" />
          </mxGeometry>
        </mxCell>
        <mxCell id="9jXBSC5-d6bjEeyR_fWg-6" value="" style="shape=flexArrow;endArrow=classic;html=1;rounded=0;fillColor=#d80073;strokeColor=#A50040;" edge="1" parent="1">
          <mxGeometry width="50" height="50" relative="1" as="geometry">
            <mxPoint x="200" y="269.5" as="sourcePoint" />
            <mxPoint x="300" y="269.5" as="targetPoint" />
          </mxGeometry>
        </mxCell>
        <mxCell id="9jXBSC5-d6bjEeyR_fWg-7" value="Request 3" style="edgeLabel;html=1;align=center;verticalAlign=middle;resizable=0;points=[];" vertex="1" connectable="0" parent="9jXBSC5-d6bjEeyR_fWg-6">
          <mxGeometry x="0.04" y="-1" relative="1" as="geometry">
            <mxPoint x="-12" y="-21" as="offset" />
          </mxGeometry>
        </mxCell>
        <mxCell id="9jXBSC5-d6bjEeyR_fWg-8" value="" style="rounded=0;whiteSpace=wrap;html=1;fillColor=#008a00;fontColor=#ffffff;strokeColor=#005700;" vertex="1" parent="1">
          <mxGeometry x="319" y="200" width="30" height="40" as="geometry" />
        </mxCell>
        <mxCell id="9jXBSC5-d6bjEeyR_fWg-9" value="" style="rounded=0;whiteSpace=wrap;html=1;fillColor=#0050ef;fontColor=#ffffff;strokeColor=#001DBC;" vertex="1" parent="1">
          <mxGeometry x="349" y="200" width="50" height="40" as="geometry" />
        </mxCell>
        <mxCell id="9jXBSC5-d6bjEeyR_fWg-10" value="" style="rounded=0;whiteSpace=wrap;html=1;fillColor=#008a00;fontColor=#ffffff;strokeColor=#005700;" vertex="1" parent="1">
          <mxGeometry x="399" y="200" width="40" height="40" as="geometry" />
        </mxCell>
        <mxCell id="9jXBSC5-d6bjEeyR_fWg-11" value="" style="rounded=0;whiteSpace=wrap;html=1;fillColor=#d80073;fontColor=#ffffff;strokeColor=#A50040;" vertex="1" parent="1">
          <mxGeometry x="439" y="200" width="30" height="40" as="geometry" />
        </mxCell>
        <mxCell id="9jXBSC5-d6bjEeyR_fWg-12" value="" style="rounded=0;whiteSpace=wrap;html=1;fillColor=#0050ef;fontColor=#ffffff;strokeColor=#001DBC;" vertex="1" parent="1">
          <mxGeometry x="468" y="200" width="41" height="40" as="geometry" />
        </mxCell>
        <mxCell id="9jXBSC5-d6bjEeyR_fWg-13" value="" style="shape=flexArrow;endArrow=classic;html=1;rounded=0;fillColor=#0050ef;strokeColor=#001DBC;" edge="1" parent="1">
          <mxGeometry width="50" height="50" relative="1" as="geometry">
            <mxPoint x="520" y="169.5" as="sourcePoint" />
            <mxPoint x="620" y="169.5" as="targetPoint" />
          </mxGeometry>
        </mxCell>
        <mxCell id="9jXBSC5-d6bjEeyR_fWg-14" value="Request 1" style="edgeLabel;html=1;align=center;verticalAlign=middle;resizable=0;points=[];" vertex="1" connectable="0" parent="9jXBSC5-d6bjEeyR_fWg-13">
          <mxGeometry x="0.04" y="-1" relative="1" as="geometry">
            <mxPoint x="-12" y="-21" as="offset" />
          </mxGeometry>
        </mxCell>
        <mxCell id="9jXBSC5-d6bjEeyR_fWg-15" value="" style="shape=flexArrow;endArrow=classic;html=1;rounded=0;fillColor=#008a00;strokeColor=#005700;" edge="1" parent="1">
          <mxGeometry width="50" height="50" relative="1" as="geometry">
            <mxPoint x="520" y="219.5" as="sourcePoint" />
            <mxPoint x="620" y="219.5" as="targetPoint" />
          </mxGeometry>
        </mxCell>
        <mxCell id="9jXBSC5-d6bjEeyR_fWg-16" value="Request 2" style="edgeLabel;html=1;align=center;verticalAlign=middle;resizable=0;points=[];" vertex="1" connectable="0" parent="9jXBSC5-d6bjEeyR_fWg-15">
          <mxGeometry x="0.04" y="-1" relative="1" as="geometry">
            <mxPoint x="-12" y="-21" as="offset" />
          </mxGeometry>
        </mxCell>
        <mxCell id="9jXBSC5-d6bjEeyR_fWg-17" value="" style="shape=flexArrow;endArrow=classic;html=1;rounded=0;fillColor=#d80073;strokeColor=#A50040;" edge="1" parent="1">
          <mxGeometry width="50" height="50" relative="1" as="geometry">
            <mxPoint x="520" y="269.5" as="sourcePoint" />
            <mxPoint x="620" y="269.5" as="targetPoint" />
          </mxGeometry>
        </mxCell>
        <mxCell id="9jXBSC5-d6bjEeyR_fWg-18" value="Request 3" style="edgeLabel;html=1;align=center;verticalAlign=middle;resizable=0;points=[];" vertex="1" connectable="0" parent="9jXBSC5-d6bjEeyR_fWg-17">
          <mxGeometry x="0.04" y="-1" relative="1" as="geometry">
            <mxPoint x="-12" y="-21" as="offset" />
          </mxGeometry>
        </mxCell>
        <mxCell id="9jXBSC5-d6bjEeyR_fWg-19" value="&lt;div&gt;&lt;br&gt;&lt;/div&gt;&lt;div&gt;Client&lt;/div&gt;" style="shape=actor;whiteSpace=wrap;html=1;" vertex="1" parent="1">
          <mxGeometry x="120" y="175" width="60" height="90" as="geometry" />
        </mxCell>
        <mxCell id="9jXBSC5-d6bjEeyR_fWg-20" value="" style="image;aspect=fixed;perimeter=ellipsePerimeter;html=1;align=center;shadow=0;dashed=0;spacingTop=3;image=img/lib/active_directory/generic_server.svg;" vertex="1" parent="1">
          <mxGeometry x="630" y="157.86" width="60" height="107.14" as="geometry" />
        </mxCell>
        <mxCell id="9jXBSC5-d6bjEeyR_fWg-21" value="TCP Connection" style="text;html=1;align=center;verticalAlign=middle;resizable=0;points=[];autosize=1;strokeColor=none;fillColor=none;" vertex="1" parent="1">
          <mxGeometry x="355" y="168" width="110" height="30" as="geometry" />
        </mxCell>
      </root>
    </mxGraphModel>
  </diagram>
</mxfile>
